<svg width="65" height="67" viewBox="0 0 65 67" fill="none" xmlns="http://www.w3.org/2000/svg">
<path d="M11.7574 38.54L31.8043 57.9514C32.1331 58.2698 32.2975 58.429 32.4999 58.429C32.7023 58.429 32.8667 58.2698 33.1955 57.9514L53.2424 38.54C56.3947 35.4876 57.9709 33.9615 58.685 32.1651C59.3554 30.4785 59.5003 28.6285 59.1005 26.8581C58.6747 24.9725 57.3553 23.2196 54.7165 19.7138L53.6588 18.3087C50.4661 14.0671 48.8698 11.9463 47.161 11.1039C44.3902 9.73801 41.0806 10.0895 38.6584 12.0068C37.1647 13.1893 36.0494 15.598 33.8188 20.4156C33.4706 21.1674 33.2966 21.5433 33.0823 21.6968C32.7341 21.9462 32.2657 21.9462 31.9176 21.6968C31.7032 21.5433 31.5292 21.1674 31.1811 20.4156L31.1811 20.4156C28.9504 15.598 27.8351 13.1893 26.3414 12.0068C23.9192 10.0895 20.6096 9.73801 17.8388 11.1039C16.13 11.9463 14.5337 14.0671 11.341 18.3087L10.2834 19.7138C7.64456 23.2196 6.32514 24.9725 5.89935 26.8581C5.49956 28.6285 5.6444 30.4785 6.31488 32.1651C7.02895 33.9615 8.6051 35.4876 11.7574 38.54Z" fill="#EE1212" stroke="#EE1212" stroke-width="2"/>
</svg>
